#!OML:ASF H:\GeneralSubjects\Female5\Project 1\Capture day 1\Session 1\Female5.ASF
:FULLY-SPECIFIED
:DEGREES
50
root 44.0656 16.042 3.62031 166.271 -83.1276 -154.586
lowerback 6.38359 0.850264 1.37271
upperback -8.61728 1.31011 1.88805
thorax -12.9688 0.512947 1.08902
lowerneck -18.2018 -5.08786 -3.33062
upperneck 28.3421 -6.60554 -0.756929
head 12.5101 -3.59623 -0.826133
rclavicle -7.97623e-015 8.74653e-015
rhumerus -49.8982 18.7538 -85.242
rradius 38.4083
rwrist -16.5184
rhand -24.3263 -19.6261
rfingers 7.12502
rthumb 2.16221 -49.5949
lclavicle -7.97623e-015 8.74653e-015
lhumerus -47.0391 8.13781 70.3824
lradius 37.5582
lwrist 10.5981
lhand -12.8576 25.2393
lfingers 7.12502
lthumb 13.2304 54.7994
rfemur 1.46505 29.5665 33.6149
rtibia -10.0532
rfoot -19.1746 -28.6689
rtoes -1.79256
lfemur -3.29702 -29.2157 -27.1909
ltibia -0.904698
lfoot -25.0812 26.1168
ltoes -54.826
51
root 44.0668 16.0396 3.62372 166.369 -83.0701 -154.657
lowerback 6.35121 0.857479 1.29617
upperback -8.64168 1.31341 1.94207
thorax -12.9807 0.524184 1.19122
lowerneck -17.9215 -5.21052 -3.47079
upperneck 27.9568 -6.76974 -0.621679
head 12.3126 -3.66507 -0.75866
rclavicle -6.13748e-015 -2.18663e-014
rhumerus -49.9531 18.7951 -85.2034
rradius 38.4161
rwrist -16.444
rhand -24.2013 -20.1338
rfingers 7.12502
rthumb 2.28296 -50.1013
lclavicle -6.13748e-015 -2.18663e-014
lhumerus -47.4305 7.4555 70.9419
lradius 38.081
lwrist 10.4209
lhand -14.2902 26.3969
lfingers 7.12502
lthumb 11.8493 56.0417
rfemur 1.42357 29.624 33.5886
rtibia -10.0663
rfoot -19.2149 -28.6328
rtoes -1.54981
lfemur -3.28429 -29.609 -27.1696
ltibia -0.978433
lfoot -24.9891 27.4506
ltoes -54.4185
52
root 44.0668 16.0379 3.62727 166.733 -83.0934 -155.04
lowerback 6.34059 0.830913 1.1837
upperback -8.64702 1.26586 1.9747
thorax -12.9832 0.514139 1.29848
lowerneck -17.835 -5.1524 -3.50845
upperneck 27.8491 -6.67475 -0.610134
head 12.2529 -3.62542 -0.727147
rclavicle -5.69021e-015 1.43125e-014
rhumerus -49.9833 18.8319 -85.1784
rradius 38.396
rwrist -16.4023
rhand -24.0239 -20.1741
rfingers 7.12502
rthumb 2.45427 -50.1397
lclavicle -5.69021e-015 1.43125e-014
lhumerus -47.4482 7.66816 71.1149
lradius 37.6792
lwrist 8.66736
lhand -16.2357 26.4529
lfingers 7.12502
lthumb 9.97273 56.1966
rfemur 1.47364 29.6021 33.5242
rtibia -10.1332
rfoot -19.0731 -28.719
rtoes -1.95032
lfemur -3.2873 -29.5209 -27.2318
ltibia -0.978813
lfoot -24.5736 27.4827
ltoes -55.1624
53
root 44.0662 16.0344 3.62839 167.124 -83.0849 -155.427
lowerback 6.29619 0.81217 1.05039
upperback -8.65008 1.22541 2.00942
thorax -12.9624 0.509554 1.41863
lowerneck -17.8633 -5.04482 -3.5286
upperneck 27.8762 -6.50897 -0.62164
head 12.2674 -3.55543 -0.70333
rclavicle 3.13086e-015 -2.10712e-014
rhumerus -49.9952 18.8592 -85.1615
rradius 38.3204
rwrist -16.4023
rhand -23.4966 -20.0641
rfingers 7.12502
rthumb 2.96352 -50.0232
lclavicle 3.13086e-015 -2.10712e-014
lhumerus -47.5629 7.66358 71.2519
lradius 37.5721
lwrist 8.12333
lhand -16.9745 26.1391
lfingers 7.12502
lthumb 9.2599 55.9158
rfemur 1.51997 29.6239 33.5022
rtibia -10.1917
rfoot -19.1735 -28.7999
rtoes -2.11892
lfemur -3.29901 -28.9339 -27.2757
ltibia -1.01333
lfoot -23.7943 27.2199
ltoes -55.4194
54
root 44.0691 16.035 3.6315 167.206 -83.0659 -155.533
lowerback 6.36162 0.789805 0.998706
upperback -8.65211 1.19285 2.03116
thorax -13.0069 0.500458 1.47688
lowerneck -17.9223 -5.00959 -3.50107
upperneck 27.8842 -6.44712 -0.672965
head 12.2785 -3.53098 -0.719182
rclavicle 8.44835e-016 -1.66979e-014
rhumerus -50.0155 18.8797 -85.1662
rradius 38.2691
rwrist -16.4378
rhand -24.0953 -21.3598
rfingers 7.12502
rthumb 2.38529 -51.3262
lclavicle 8.44835e-016 -1.66979e-014
lhumerus -47.8041 7.3399 71.3977
lradius 37.8928
lwrist 8.87912
lhand -16.8146 25.8529
lfingers 7.12502
lthumb 9.41421 55.6226
rfemur 1.57107 29.6266 33.4704
rtibia -10.2781
rfoot -19.613 -28.9766
rtoes -2.60204
lfemur -3.22444 -28.8266 -27.2866
ltibia -1.16525
lfoot -23.802 26.9678
ltoes -55.3487
55
root 44.0702 16.0353 3.63627 167.327 -82.9808 -155.619
lowerback 6.35653 0.784951 0.957463
upperback -8.6709 1.18419 2.07493
thorax -13.0279 0.502254 1.55
lowerneck -17.9355 -5.01255 -3.52636
upperneck 27.8753 -6.43888 -0.684304
head 12.2782 -3.53131 -0.718161
rclavicle -2.38542e-015 -1.35174e-014
rhumerus -50.0232 18.8585 -85.1063
rradius 38.2322
rwrist -16.3385
rhand -27.9069 -25.3989
rfingers 7.12502
rthumb -1.296 -55.3747
lclavicle -2.38542e-015 -1.35174e-014
lhumerus -47.4368 8.25967 70.9693
lradius 36.845
lwrist 7.72765
lhand -17.4778 25.4674
lfingers 7.12502
lthumb 8.77431 55.265
rfemur 1.51477 29.6994 33.405
rtibia -10.2997
rfoot -19.4513 -29.0244
rtoes -2.95402
lfemur -3.07513 -29.3106 -27.2545
ltibia -1.44671
lfoot -25.0526 26.686
ltoes -53.8134
